<?xml version="1.0" encoding="UTF-8" standalone="no"?>
<svg
   xmlns:dc="http://purl.org/dc/elements/1.1/"
   xmlns:cc="http://creativecommons.org/ns#"
   xmlns:rdf="http://www.w3.org/1999/02/22-rdf-syntax-ns#"
   xmlns:svg="http://www.w3.org/2000/svg"
   xmlns="http://www.w3.org/2000/svg"
   version="1.1"
   id="svg2"
   viewBox="0 0 0 1052.3622"
   height="55.018002mm"
   width="83.518997mm">
  <defs
     id="defs4">
    <marker
       style="overflow:visible"
       id="Arrow1Lend"
       refX="0"
       refY="0"
       orient="auto">
      <path
         transform="matrix(-0.8,0,0,-0.8,-10,0)"
         style="fill:#bf0000;fill-opacity:1;fill-rule:evenodd;stroke:#bf0000;stroke-width:1pt;stroke-opacity:1"
         d="M 0,0 5,-5 -12.5,0 5,5 0,0 Z"
         id="path4164" />
    </marker>
    <marker
       style="overflow:visible"
       id="Arrow1Lstart"
       refX="0"
       refY="0"
       orient="auto">
      <path
         transform="matrix(0.8,0,0,0.8,10,0)"
         style="fill:#000000;fill-opacity:1;fill-rule:evenodd;stroke:#000000;stroke-width:1pt;stroke-opacity:1"
         d="M 0,0 5,-5 -12.5,0 5,5 0,0 Z"
         id="path4161" />
    </marker>
  </defs>
  <metadata
     id="metadata7">
    <rdf:RDF>
      <cc:Work
         rdf:about="">
        <dc:format>image/svg+xml</dc:format>
        <dc:type
           rdf:resource="http://purl.org/dc/dcmitype/StillImage" />
        <dc:title></dc:title>
      </cc:Work>
    </rdf:RDF>
  </metadata>
  <g
     transform="translate(0,-857.41654)"
     id="layer1">
    <rect
       transform="matrix(1,0,-0.46747498,0.8840063,0,0)"
       y="1079.3741"
       x="574.69244"
       height="110.74789"
       width="160.90115"
       id="rect4138-0"
       style="fill:#e6e6e6;fill-opacity:0.56410259;stroke:#000000;stroke-width:0.64897013;stroke-miterlimit:4;stroke-dasharray:none;stroke-opacity:1" />
    <rect
       transform="matrix(0.68014571,0.73307695,-1,4.3489538e-5,0,0)"
       y="655.44202"
       x="1201.1844"
       height="160.96298"
       width="196.75124"
       id="rect4136"
       style="fill:#ffffff;stroke:#000000;stroke-width:0.68499845;stroke-miterlimit:4;stroke-dasharray:none;stroke-opacity:1" />
    <rect
       transform="matrix(1,0,-0.46747498,0.8840063,0,0)"
       y="970.24646"
       x="574.69067"
       height="110.74789"
       width="160.90115"
       id="rect4138"
       style="fill:#ffffff;stroke:#000000;stroke-width:0.64897013;stroke-miterlimit:4;stroke-dasharray:none;stroke-opacity:1" />
    <path
       id="path4155"
       d="M 232.49387,955.80831 32.649939,956.62888"
       style="fill:none;fill-rule:evenodd;stroke:#bf0000;stroke-width:2.0941925;stroke-linecap:butt;stroke-linejoin:miter;stroke-miterlimit:4;stroke-dasharray:none;stroke-opacity:1;marker-end:url(#Arrow1Lend)" />
  </g>
</svg>
